<svg xmlns="http://www.w3.org/2000/svg" width="32" height="32" viewBox="0 0 32 32">
    <g fill="#888">
        <g>
            <circle cx="7.5" cy="4.5" r=".5"/>
            <circle cx="5.5" cy="4.5" r=".5"/>
            <circle cx="3.5" cy="4.5" r=".5"/>
            <path d="M30.5 7h-29c-.276 0-.5-.224-.5-.5s.224-.5.5-.5h29c.276 0 .5.224.5.5s-.224.5-.5.5z"/>
            <path d="M29.5 28h-2c-.276 0-.5-.224-.5-.5s.224-.5.5-.5h2c.276 0 .5-.225.5-.5v-23c0-.275-.224-.5-.5-.5h-27c-.276 0-.5.225-.5.5v23c0 .275.224.5.5.5h2c.276 0 .5.224.5.5s-.224.5-.5.5h-2c-.827 0-1.5-.673-1.5-1.5v-23C1 2.673 1.673 2 2.5 2h27c.827 0 1.5.673 1.5 1.5v23c0 .827-.673 1.5-1.5 1.5z"/>
        </g>
        <path d="M24.5 29h-17c-.574 0-1.041-.23-1.28-.632-.239-.401-.22-.921.053-1.426l6.6-12.209c.131-.243.434-.334.678-.202.243.131.333.435.202.677l-6.6 12.21c-.098.182-.126.35-.074.438S7.293 28 7.5 28h17c.207 0 .368-.055.42-.144s.024-.257-.074-.438l-8.573-15.862c-.224-.412-.323-.413-.547.001l-.623 1.15c-.132.242-.436.333-.678.201-.243-.131-.333-.435-.202-.678l.623-1.15c.555-1.023 1.752-1.023 2.307 0l8.573 15.862c.273.504.292 1.023.053 1.425-.238.403-.705.633-1.279.633z"/>
        <path d="M16 23c-.225 0-.421-.149-.481-.365-.042-.15-1.019-3.666-1.019-5.135 0-.827.673-1.5 1.5-1.5s1.5.673 1.5 1.5c0 1.511-.977 4.988-1.019 5.136-.061.216-.257.364-.481.364zm0-6c-.276 0-.5.225-.5.5 0 .68.253 1.923.502 2.981.248-1.05.498-2.284.498-2.981 0-.275-.224-.5-.5-.5zM16 27c-.827 0-1.5-.673-1.5-1.5S15.173 24 16 24s1.5.673 1.5 1.5S16.827 27 16 27zm0-2c-.276 0-.5.225-.5.5s.224.5.5.5.5-.225.5-.5-.224-.5-.5-.5z"/>
    </g>
</svg>
