<svg width="45" height="45" viewBox="0 0 45 45" fill="none" xmlns="http://www.w3.org/2000/svg">
<path d="M37.9687 22.5695C37.9687 30.3744 31.6416 36.7015 23.8367 36.7015C22.0465 36.7015 20.334 36.3686 18.7578 35.7614C18.4696 35.6504 18.3255 35.5948 18.2109 35.5684C18.0982 35.5425 18.0166 35.5316 17.9011 35.5272C17.7836 35.5227 17.6546 35.536 17.3968 35.5627L8.88265 36.4428C8.0709 36.5267 7.66503 36.5686 7.42561 36.4226C7.21708 36.2954 7.07505 36.0829 7.03724 35.8416C6.99383 35.5645 7.18778 35.2055 7.57568 34.4875L10.2951 29.454C10.5191 29.0395 10.631 28.8322 10.6818 28.6329C10.7318 28.4361 10.744 28.2941 10.7279 28.0917C10.7117 27.8867 10.6218 27.6198 10.4419 27.0861C9.96384 25.6679 9.70473 24.149 9.70473 22.5695C9.70473 14.7646 16.0318 8.4375 23.8367 8.4375C31.6416 8.4375 37.9687 14.7646 37.9687 22.5695Z" stroke="white" stroke-width="3" stroke-linecap="round" stroke-linejoin="round"/>
</svg>
