<svg width="20" height="20" viewBox="0 0 20 20" fill="none" xmlns="http://www.w3.org/2000/svg">
<path d="M17.5 7.06812C17.5004 6.92492 17.4724 6.78308 17.4176 6.65078C17.3628 6.51849 17.2823 6.39838 17.1807 6.29741L13.702 2.81861C13.4975 2.61458 13.2203 2.5 12.9314 2.5C12.6425 2.5 12.3654 2.61458 12.1608 2.81861L2.81917 12.1606C2.71257 12.2672 2.62933 12.3948 2.57473 12.5354L2.5724 12.5421C2.52467 12.6663 2.50013 12.7982 2.5 12.9313V16.4101C2.50033 16.6991 2.61526 16.9761 2.81957 17.1804C3.02389 17.3847 3.30091 17.4997 3.58985 17.5H16.6681C16.7919 17.5 16.9107 17.4508 16.9983 17.3632C17.0859 17.2756 17.1351 17.1568 17.1351 17.0329C17.1351 16.909 17.0859 16.7902 16.9983 16.7026C16.9107 16.615 16.7919 16.5658 16.6681 16.5658H8.45408L17.1807 7.83883C17.2822 7.73787 17.3627 7.61776 17.4175 7.48547C17.4724 7.35317 17.5004 7.21132 17.5 7.06812ZM3.62761 12.6733L10.4403 5.86028L14.1392 9.55931L7.32648 16.3723L3.62761 12.6733ZM3.43416 16.4101V13.801L6.19887 16.5658H3.58985C3.54858 16.5657 3.50901 16.5493 3.47983 16.5201C3.45064 16.4909 3.43422 16.4514 3.43416 16.4101ZM16.5201 7.1782L14.7997 8.89876L11.1009 5.19972L12.8213 3.47924C12.8505 3.4501 12.8901 3.43374 12.9314 3.43374C12.9727 3.43374 13.0123 3.4501 13.0416 3.47924L16.5202 6.95804C16.5347 6.97249 16.5462 6.98965 16.554 7.00854C16.5618 7.02743 16.5658 7.04767 16.5658 7.06812C16.5658 7.08856 16.5618 7.10881 16.554 7.1277C16.5462 7.14659 16.5347 7.16375 16.5202 7.1782H16.5201Z" fill="#9596A0"/>
</svg>
