<svg xmlns="http://www.w3.org/2000/svg" width="8" height="12">
    <path fill="#9596A0" fill-rule="evenodd" d="M6.499 7.437c-.829 0-1.5-.643-1.5-1.437s.671-1.438 1.5-1.438c.828 0 1.5.644 1.5 1.438 0 .794-.672 1.437-1.5 1.437zm0-4.593c-.829 0-1.5-.637-1.5-1.422C4.999.636 5.67 0 6.499 0c.828 0 1.5.636 1.5 1.422 0 .785-.672 1.422-1.5 1.422zm-5 9.156c-.828 0-1.5-.637-1.5-1.422 0-.785.672-1.422 1.5-1.422s1.5.637 1.5 1.422c0 .785-.672 1.422-1.5 1.422zm0-4.563c-.828 0-1.5-.643-1.5-1.437s.672-1.438 1.5-1.438 1.5.644 1.5 1.438c0 .794-.672 1.437-1.5 1.437zm0-4.593c-.828 0-1.5-.637-1.5-1.422C-.001.636.671 0 1.499 0s1.5.636 1.5 1.422c0 .785-.672 1.422-1.5 1.422zm5 6.312c.828 0 1.5.637 1.5 1.422 0 .785-.672 1.422-1.5 1.422-.829 0-1.5-.637-1.5-1.422 0-.785.671-1.422 1.5-1.422z"/>
</svg>
