<svg width="24" height="24" viewBox="0 0 24 24" fill="none" xmlns="http://www.w3.org/2000/svg">
<path fill-rule="evenodd" clip-rule="evenodd" d="M18 3.6V4.8H20.4C21.3548 4.8 22.2705 5.17929 22.9456 5.85442C23.6207 6.52955 24 7.44522 24 8.4V13.5H18V10.8C18 10.4817 17.8736 10.1765 17.6485 9.95147C17.4235 9.72643 17.1183 9.6 16.8 9.6C16.4817 9.6 16.1765 9.72643 15.9515 9.95147C15.7264 10.1765 15.6 10.4817 15.6 10.8V13.5H8.4V10.8C8.4 10.4817 8.27357 10.1765 8.04853 9.95147C7.82348 9.72643 7.51826 9.6 7.2 9.6C6.88174 9.6 6.57652 9.72643 6.35147 9.95147C6.12643 10.1765 6 10.4817 6 10.8V13.5H0L0 8.4C0 7.44522 0.379285 6.52955 1.05442 5.85442C1.72955 5.17929 2.64522 4.8 3.6 4.8H6V3.6C6 2.64522 6.37929 1.72955 7.05442 1.05442C7.72955 0.379285 8.64522 0 9.6 0H14.4C15.3548 0 16.2705 0.379285 16.9456 1.05442C17.6207 1.72955 18 2.64522 18 3.6ZM15.6 15.6V14.4H8.4V15.6C8.4 15.9183 8.27357 16.2235 8.04853 16.4485C7.82348 16.6736 7.51826 16.8 7.2 16.8C6.88174 16.8 6.57652 16.6736 6.35147 16.4485C6.12643 16.2235 6 15.9183 6 15.6V14.4H0V20.4C0 21.3548 0.379285 22.2705 1.05442 22.9456C1.72955 23.6207 2.64522 24 3.6 24H20.4C21.3548 24 22.2705 23.6207 22.9456 22.9456C23.6207 22.2705 24 21.3548 24 20.4V14.4H18V15.6C18 15.9183 17.8736 16.2235 17.6485 16.4485C17.4235 16.6736 17.1183 16.8 16.8 16.8C16.4817 16.8 16.1765 16.6736 15.9515 16.4485C15.7264 16.2235 15.6 15.9183 15.6 15.6ZM10.8 2.4C10.4817 2.4 10.1765 2.52643 9.95147 2.75147C9.72643 2.97652 9.6 3.28174 9.6 3.6V4.8H14.4V3.6C14.4 3.28174 14.2736 2.97652 14.0485 2.75147C13.8235 2.52643 13.5183 2.4 13.2 2.4H10.8Z" fill="white"/>
</svg>
