<svg width="21" height="24" viewBox="0 0 21 24" fill="none" xmlns="http://www.w3.org/2000/svg">
<path d="M10.5 24C11.2225 24.0009 11.9274 23.7703 12.5166 23.3402C13.1058 22.9101 13.5501 22.3018 13.7877 21.6H7.21233C7.44994 22.3018 7.89422 22.9101 8.48343 23.3402C9.07263 23.7703 9.77748 24.0009 10.5 24ZM18.6667 15.1032V9.6C18.6667 5.7396 16.1175 2.4876 12.6642 1.5096C12.3223 0.624 11.487 0 10.5 0C9.513 0 8.67767 0.624 8.33583 1.5096C4.8825 2.4888 2.33333 5.7396 2.33333 9.6V15.1032L0.341834 17.1516C0.233285 17.2628 0.147199 17.3951 0.0885329 17.5407C0.0298668 17.6863 -0.000221024 17.8424 1.22229e-06 18V19.2C1.22229e-06 19.5183 0.122917 19.8235 0.34171 20.0485C0.560502 20.2736 0.857249 20.4 1.16667 20.4H19.8333C20.1428 20.4 20.4395 20.2736 20.6583 20.0485C20.8771 19.8235 21 19.5183 21 19.2V18C21.0002 17.8424 20.9701 17.6863 20.9115 17.5407C20.8528 17.3951 20.7667 17.2628 20.6582 17.1516L18.6667 15.1032Z" fill="white"/>
</svg>
