<svg width="36" height="24" viewBox="0 0 36 24" fill="none" xmlns="http://www.w3.org/2000/svg">
<path d="M29.025 9.045C28.5181 6.49434 27.142 4.19852 25.1315 2.54907C23.121 0.899632 20.6005 -0.00127434 18 1.35294e-06C13.665 1.35294e-06 9.9 2.46 8.025 6.045C5.81908 6.28673 3.78006 7.33438 2.29906 8.98701C0.818062 10.6396 -0.000637393 12.7809 3.72333e-07 15C3.72333e-07 17.3869 0.948212 19.6761 2.63604 21.364C4.32387 23.0518 6.61305 24 9 24H28.5C29.4849 24 30.4602 23.806 31.3701 23.4291C32.2801 23.0522 33.1069 22.4997 33.8033 21.8033C34.4997 21.1069 35.0522 20.2801 35.4291 19.3701C35.806 18.4602 36 17.4849 36 16.5C36 12.54 32.925 9.33 29.025 9.045Z" fill="white"/>
</svg>
