<svg width="24" height="24" viewBox="0 0 24 24" fill="none" xmlns="http://www.w3.org/2000/svg">
<path d="M21.3334 0.333374H2.66671C2.04787 0.333374 1.45438 0.579207 1.01679 1.01679C0.579207 1.45438 0.333374 2.04787 0.333374 2.66671V16.6667C0.333374 17.2855 0.579207 17.879 1.01679 18.3166C1.45438 18.7542 2.04787 19 2.66671 19H9.66671V21.3334H6.16671V23.6667H17.8334V21.3334H14.3334V19H21.3334C21.9522 19 22.5457 18.7542 22.9833 18.3166C23.4209 17.879 23.6667 17.2855 23.6667 16.6667V2.66671C23.6667 2.04787 23.4209 1.45438 22.9833 1.01679C22.5457 0.579207 21.9522 0.333374 21.3334 0.333374ZM21.3334 16.6667H2.66671V2.66671H21.3334V16.6667Z" fill="white"/>
<rect x="1.66663" y="1.33337" width="19.8333" height="16.3333" fill="white"/>
</svg>
