<svg width="36" height="36" viewBox="0 0 36 36" fill="none" xmlns="http://www.w3.org/2000/svg">
<path fill-rule="evenodd" clip-rule="evenodd" d="M14.6667 13C13.7462 13 13 13.7462 13 14.6667V21.3333C13 22.2538 13.7462 23 14.6667 23H21.3333C22.2538 23 23 22.2538 23 21.3333V14.6667C23 13.7462 22.2538 13 21.3333 13H14.6667ZM11 14.6667C11 12.6416 12.6416 11 14.6667 11H21.3333C23.3584 11 25 12.6416 25 14.6667V21.3333C25 23.3584 23.3584 25 21.3333 25H14.6667C12.6416 25 11 23.3584 11 21.3333V14.6667Z" fill="#959EE8"/>
<path fill-rule="evenodd" clip-rule="evenodd" d="M14 1.5C14 0.671573 14.6716 0 15.5 0C16.3284 0 17 0.671573 17 1.5V4H21V1.5C21 0.671573 21.6716 0 22.5 0C23.3284 0 24 0.671573 24 1.5V4H25.2222C28.9655 4 32 7.03451 32 10.7778V13H34.5C35.3284 13 36 13.6716 36 14.5C36 15.3284 35.3284 16 34.5 16H32V20H34.5C35.3284 20 36 20.6716 36 21.5C36 22.3284 35.3284 23 34.5 23H32V25.2222C32 28.9655 28.9655 32 25.2222 32H24V34.5C24 35.3284 23.3284 36 22.5 36C21.6716 36 21 35.3284 21 34.5V32H17V34.5C17 35.3284 16.3284 36 15.5 36C14.6716 36 14 35.3284 14 34.5V32H10.7778C7.03451 32 4 28.9655 4 25.2222V23H1.5C0.671573 23 0 22.3284 0 21.5C1.19209e-07 20.6716 0.671573 20 1.5 20H4V16H1.5C0.671573 16 0 15.3284 0 14.5C1.19209e-07 13.6716 0.671573 13 1.5 13H4V10.7778C4 7.03451 7.03451 4 10.7778 4H14V1.5ZM6 25.2222C6 27.8609 8.13908 30 10.7778 30H25.2222C27.8609 30 30 27.8609 30 25.2222V10.7778C30 8.13908 27.8609 6 25.2222 6H10.7778C8.13908 6 6 8.13908 6 10.7778V25.2222Z" fill="#959EE8"/>
</svg>
