<svg width="204" height="215" viewBox="0 0 204 215" fill="none" xmlns="http://www.w3.org/2000/svg">
<path d="M182.067 77.3741C182.758 74.6544 182.585 71.8189 181.572 69.2906C180.56 66.7623 178.762 64.6769 176.448 63.3457L59.2036 -4.34558C56.8558 -5.70354 54.1023 -6.20971 51.3664 -5.78626C48.6305 -5.36281 46.0638 -4.03317 44.0611 -2.00187L-8.80974 54.4282L159.555 151.634L182.067 77.3741Z" fill="white" fill-opacity="0.15"/>
<path d="M-16.8951 64.8435L-39.7545 104.437C-41.4867 107.437 -42.0188 110.967 -41.2339 114.248C-40.4489 117.53 -38.411 120.296 -35.5687 121.937L114.47 208.562C117.313 210.203 120.727 210.585 123.961 209.624C127.196 208.663 129.986 206.437 131.719 203.437L154.578 163.844L-16.8951 64.8435ZM116.816 179.75L95.3815 167.375L101.913 156.062L123.347 168.437L116.816 179.75Z" fill="white" fill-opacity="0.15"/>
</svg>
