<svg width="247" height="176" viewBox="0 0 247 176" fill="none" xmlns="http://www.w3.org/2000/svg">
<path d="M68.2846 -8C56.7491 -14.66 42.1282 -10.6958 35.4286 0.908328L-24.9286 105.45C-31.6282 117.054 -27.7509 131.698 -16.2154 138.358L150.061 234.358C161.597 241.018 176.218 237.054 182.918 225.45L243.275 120.908C249.974 109.304 246.097 94.66 234.561 88L68.2846 -8ZM61.4093 15.9083C64.1655 17.4996 66.173 20.1272 66.99 23.2129C67.807 26.2987 67.3667 29.5899 65.7659 32.3625C64.1651 35.1351 61.535 37.162 58.4542 37.9973C55.3733 38.8327 52.0941 38.408 49.3379 36.8167C46.5817 35.2254 44.5743 32.5978 43.7573 29.5121C42.9402 26.4263 43.3805 23.1351 44.9813 20.3625C46.5821 17.5899 49.2122 15.563 52.293 14.7276C55.3739 13.8923 58.6531 14.317 61.4093 15.9083ZM82.3901 39.5686C85.1515 34.7857 91.2674 33.1469 96.0503 35.9083L213.83 103.908C218.613 106.67 220.251 112.786 217.49 117.569L167.133 204.79C164.371 209.573 158.256 211.211 153.473 208.45L35.6932 140.45C30.9103 137.689 29.2715 131.573 32.0329 126.79L82.3901 39.5686ZM100.407 52.3625C95.624 49.6011 89.5081 51.2398 86.7467 56.0227L48.461 122.336C45.6995 127.118 47.3383 133.234 52.1212 135.996L65.9776 143.996C70.7605 146.757 76.8765 145.118 79.6379 140.336L117.924 74.0227C120.685 69.2398 119.046 63.1239 114.263 60.3625L100.407 52.3625ZM141.976 76.3625C137.193 73.6011 131.077 75.2398 128.316 80.0227L90.0302 146.336C87.2688 151.118 88.9075 157.234 93.6904 159.996L107.547 167.996C112.33 170.757 118.446 169.118 121.207 164.336L159.493 98.0227C162.254 93.2398 160.615 87.1239 155.833 84.3625L141.976 76.3625ZM183.545 100.362C178.762 97.6011 172.647 99.2398 169.885 104.023L131.599 170.336C128.838 175.118 130.477 181.234 135.26 183.996L149.116 191.996C153.899 194.757 160.015 193.118 162.776 188.336L201.062 122.023C203.823 117.24 202.185 111.124 197.402 108.362L183.545 100.362ZM94.6033 66.4147C95.4317 64.9799 97.2665 64.4882 98.7013 65.3167L104.153 68.4639C105.587 69.2923 106.079 71.1271 105.251 72.562L102.215 77.82C101.386 79.2549 99.5517 79.7465 98.1168 78.9181L92.6656 75.7708C91.2308 74.9424 90.7391 73.1076 91.5676 71.6727L94.6033 66.4147ZM136.172 90.4147C137.001 88.9798 138.836 88.4882 140.271 89.3166L145.467 92.3166C146.902 93.1451 147.393 94.9798 146.565 96.4147L143.529 101.673C142.701 103.108 140.866 103.599 139.431 102.771L134.235 99.7708C132.8 98.9424 132.308 97.1076 133.137 95.6727L136.172 90.4147ZM177.742 114.415C178.57 112.98 180.405 112.488 181.84 113.317L187.036 116.317C188.471 117.145 188.962 118.98 188.134 120.415L185.098 125.673C184.27 127.108 182.435 127.599 181 126.771L175.804 123.771C174.369 122.942 173.878 121.108 174.706 119.673L177.742 114.415Z" fill="white" fill-opacity="0.1"/>
</svg>
