<svg width="40" height="40" viewBox="0 0 40 40" fill="none" xmlns="http://www.w3.org/2000/svg">
<path fill-rule="evenodd" clip-rule="evenodd" d="M13.8889 5C11.7411 5 10 6.74111 10 8.88889V21.1111C10 23.2589 11.7411 25 13.8889 25H26.1111C28.2589 25 30 23.2589 30 21.1111V8.88889C30 6.74111 28.2589 5 26.1111 5H13.8889ZM8 8.88889C8 5.63655 10.6365 3 13.8889 3H26.1111C29.3635 3 32 5.63655 32 8.88889V21.1111C32 24.3635 29.3635 27 26.1111 27H13.8889C10.6365 27 8 24.3635 8 21.1111V8.88889Z" fill="#959EE8"/>
<path fill-rule="evenodd" clip-rule="evenodd" d="M23.3519 12.4928C23.7548 12.8705 23.7752 13.5033 23.3975 13.9062L19.6475 17.9062C19.2768 18.3016 18.6587 18.3298 18.2536 17.9697L16.0036 15.9697C15.5908 15.6028 15.5537 14.9707 15.9206 14.5579C16.2875 14.1451 16.9196 14.108 17.3323 14.4749L18.8545 15.8279L21.9384 12.5384C22.3162 12.1354 22.949 12.115 23.3519 12.4928Z" fill="#959EE8"/>
<path d="M16 32C16 31.4477 16.4477 31 17 31H23C23.5523 31 24 31.4477 24 32V35C24 35.5523 23.5523 36 23 36H17C16.4477 36 16 35.5523 16 35V32Z" fill="#959EE8"/>
<path d="M18 27H22V31H18V27Z" fill="#959EE8"/>
<path d="M35 32C35.5523 32 36 32.4477 36 33L36 34C36 34.5523 35.5523 35 35 35L5 35C4.44772 35 4 34.5523 4 34L4 33C4 32.4477 4.44772 32 5 32L35 32Z" fill="#959EE8"/>
</svg>
