<svg width="182" height="208" viewBox="0 0 182 208" fill="none" xmlns="http://www.w3.org/2000/svg">
<path d="M-46.9091 74.1772L-59.6363 96.2215C-61.3241 99.1448 -61.7452 102.64 -60.8069 105.937C-59.8687 109.235 -57.648 112.066 -54.6334 113.806L104.499 205.681C107.513 207.422 111.075 207.93 114.4 207.093C117.725 206.257 120.541 204.145 122.229 201.222L134.956 179.177L123.59 172.615L136.317 150.57L147.684 157.133L179.502 102.022C181.189 99.099 181.611 95.6041 180.672 92.3063C179.734 89.0085 177.513 86.1781 174.499 84.4376L102.832 43.061L91.8552 62.0742L78.2721 54.232L89.2494 35.2188L15.3666 -7.43741C12.352 -9.1779 8.79042 -9.68583 5.46535 -8.8495C2.14029 -8.01315 -0.675863 -5.90103 -2.3636 -2.97777L-34.1818 52.1329L-22.8152 58.6954L-35.5425 80.7397L-46.9091 74.1772ZM100.396 107.787L123.129 120.912L97.6747 165.001L74.9415 151.876L100.396 107.787ZM54.9297 81.5372L77.6629 94.6622L52.2084 138.751L29.4752 125.626L54.9297 81.5372ZM9.46342 55.2872L32.1966 68.4122L6.74203 112.501L-15.9911 99.3758L9.46342 55.2872Z" fill="white" fill-opacity="0.15"/>
</svg>
