<svg width="520" height="600" viewBox="0 0 520 600" fill="none" xmlns="http://www.w3.org/2000/svg">
<path d="M6 0C2.68629 0 0 2.68629 0 5.99999V490.63C8.62614 492.85 15 500.681 15 510C15 519.319 8.62614 527.15 0 529.37V594C0 597.314 2.68628 600 5.99999 600H16.4578C17.7321 595.943 21.5224 593 26 593C30.4776 593 34.2679 595.943 35.5422 600H42.4578C43.7321 595.943 47.5224 593 52 593C56.4776 593 60.2679 595.943 61.5422 600H68.4578C69.7321 595.943 73.5224 593 78 593C82.4776 593 86.2679 595.943 87.5422 600H94.4578C95.7321 595.943 99.5224 593 104 593C108.478 593 112.268 595.943 113.542 600H120.458C121.732 595.943 125.522 593 130 593C134.478 593 138.268 595.943 139.542 600H146.458C147.732 595.943 151.522 593 156 593C160.478 593 164.268 595.943 165.542 600H172.458C173.732 595.943 177.522 593 182 593C186.478 593 190.268 595.943 191.542 600H198.458C199.732 595.943 203.522 593 208 593C212.478 593 216.268 595.943 217.542 600H224.458C225.732 595.943 229.522 593 234 593C238.478 593 242.268 595.943 243.542 600H250.458C251.732 595.943 255.522 593 260 593C264.478 593 268.268 595.943 269.542 600H276.458C277.732 595.943 281.522 593 286 593C290.478 593 294.268 595.943 295.542 600H302.458C303.732 595.943 307.522 593 312 593C316.478 593 320.268 595.943 321.542 600H328.458C329.732 595.943 333.522 593 338 593C342.478 593 346.268 595.943 347.542 600H354.458C355.732 595.943 359.522 593 364 593C368.478 593 372.268 595.943 373.542 600H380.458C381.732 595.943 385.522 593 390 593C394.478 593 398.268 595.943 399.542 600H406.458C407.732 595.943 411.522 593 416 593C420.478 593 424.268 595.943 425.542 600H432.458C433.732 595.943 437.522 593 442 593C446.478 593 450.268 595.943 451.542 600H458.458C459.732 595.943 463.522 593 468 593C472.478 593 476.268 595.943 477.542 600H484.458C485.732 595.943 489.522 593 494 593C498.478 593 502.268 595.943 503.542 600H514C517.314 600 520 597.314 520 594V530.254C511.349 527.85 505 519.917 505 510.5C505 501.083 511.349 493.15 520 490.746V6C520 2.68629 517.314 0 514 0H6Z" fill="#070A20"/>
</svg>
