<svg width="38" height="39" viewBox="0 0 38 39" fill="none" xmlns="http://www.w3.org/2000/svg">
<path d="M5.7 8.85485e-09H32.3C33.7539 -8.09813e-05 35.1529 0.555418 36.2107 1.55284C37.2685 2.55026 37.9052 3.9142 37.9905 5.3656L38 5.7V12.3C38.0001 13.7539 37.4446 15.1529 36.4472 16.2107C35.4497 17.2685 34.0858 17.9052 32.6344 17.9905L32.3 18H5.7C4.2461 18.0001 2.84712 17.4446 1.7893 16.4472C0.731487 15.4497 0.0947957 14.0858 0.00950023 12.6344L8.85485e-09 12.3V5.7C-8.09813e-05 4.2461 0.555418 2.84712 1.55284 1.7893C2.55026 0.731487 3.9142 0.0947957 5.3656 0.00950023L5.7 8.85485e-09ZM32.3 2.85H5.7C4.94413 2.85 4.21922 3.15027 3.68475 3.68475C3.15027 4.21922 2.85 4.94413 2.85 5.7V12.3C2.85 13.0559 3.15027 13.7808 3.68475 14.3153C4.21922 14.8497 4.94413 15.15 5.7 15.15H32.3C33.0559 15.15 33.7808 14.8497 34.3153 14.3153C34.8497 13.7808 35.15 13.0559 35.15 12.3V5.7C35.15 4.94413 34.8497 4.21922 34.3153 3.68475C33.7808 3.15027 33.0559 2.85 32.3 2.85ZM30.4 5.7C30.9039 5.7 31.3872 5.90018 31.7435 6.2565C32.0998 6.61282 32.3 7.09609 32.3 7.6C32.3 8.10391 32.0998 8.58718 31.7435 8.9435C31.3872 9.29982 30.9039 9.5 30.4 9.5C29.8961 9.5 29.4128 9.29982 29.0565 8.9435C28.7002 8.58718 28.5 8.10391 28.5 7.6C28.5 7.09609 28.7002 6.61282 29.0565 6.2565C29.4128 5.90018 29.8961 5.7 30.4 5.7ZM22.8 5.7C23.3039 5.7 23.7872 5.90018 24.1435 6.2565C24.4998 6.61282 24.7 7.09609 24.7 7.6C24.7 8.10391 24.4998 8.58718 24.1435 8.9435C23.7872 9.29982 23.3039 9.5 22.8 9.5C22.2961 9.5 21.8128 9.29982 21.4565 8.9435C21.1002 8.58718 20.9 8.10391 20.9 7.6C20.9 7.09609 21.1002 6.61282 21.4565 6.2565C21.8128 5.90018 22.2961 5.7 22.8 5.7Z" fill="#959EE8"/>
<path d="M5.7 21H32.3C33.7539 20.9999 35.1529 21.5554 36.2107 22.5528C37.2685 23.5503 37.9052 24.9142 37.9905 26.3656L38 26.7V33.3C38.0001 34.7539 37.4446 36.1529 36.4472 37.2107C35.4497 38.2685 34.0858 38.9052 32.6344 38.9905L32.3 39H5.7C4.2461 39.0001 2.84712 38.4446 1.7893 37.4472C0.731487 36.4497 0.0947957 35.0858 0.00950023 33.6344L8.85485e-09 33.3V26.7C-8.09813e-05 25.2461 0.555418 23.8471 1.55284 22.7893C2.55026 21.7315 3.9142 21.0948 5.3656 21.0095L5.7 21ZM32.3 23.85H5.7C4.94413 23.85 4.21922 24.1503 3.68475 24.6847C3.15027 25.2192 2.85 25.9441 2.85 26.7V33.3C2.85 34.0559 3.15027 34.7808 3.68475 35.3153C4.21922 35.8497 4.94413 36.15 5.7 36.15H32.3C33.0559 36.15 33.7808 35.8497 34.3153 35.3153C34.8497 34.7808 35.15 34.0559 35.15 33.3V26.7C35.15 25.9441 34.8497 25.2192 34.3153 24.6847C33.7808 24.1503 33.0559 23.85 32.3 23.85ZM30.4 26.7C30.9039 26.7 31.3872 26.9002 31.7435 27.2565C32.0998 27.6128 32.3 28.0961 32.3 28.6C32.3 29.1039 32.0998 29.5872 31.7435 29.9435C31.3872 30.2998 30.9039 30.5 30.4 30.5C29.8961 30.5 29.4128 30.2998 29.0565 29.9435C28.7002 29.5872 28.5 29.1039 28.5 28.6C28.5 28.0961 28.7002 27.6128 29.0565 27.2565C29.4128 26.9002 29.8961 26.7 30.4 26.7ZM22.8 26.7C23.3039 26.7 23.7872 26.9002 24.1435 27.2565C24.4998 27.6128 24.7 28.0961 24.7 28.6C24.7 29.1039 24.4998 29.5872 24.1435 29.9435C23.7872 30.2998 23.3039 30.5 22.8 30.5C22.2961 30.5 21.8128 30.2998 21.4565 29.9435C21.1002 29.5872 20.9 29.1039 20.9 28.6C20.9 28.0961 21.1002 27.6128 21.4565 27.2565C21.8128 26.9002 22.2961 26.7 22.8 26.7Z" fill="#959EE8"/>
</svg>
