<svg width="40" height="24" viewBox="0 0 40 24" fill="none" xmlns="http://www.w3.org/2000/svg">
<path d="M40 4.18375V2C40 0.895625 39.1044 0 38 0H2C0.895625 0 0 0.895625 0 2V4.18375C1.1625 4.59687 2 5.69562 2 7C2 8.30437 1.1625 9.40312 0 9.81625V16H40V9.81625C38.8375 9.40312 38 8.30437 38 7C38 5.69562 38.8375 4.59687 40 4.18375ZM14 12H10V4H14V12ZM22 12H18V4H22V12ZM30 12H26V4H30V12ZM0 24H4V22.3331C4 21.7806 4.4475 21.3331 5 21.3331C5.5525 21.3331 6 21.7806 6 22.3331V24H14V22.3331C14 21.7806 14.4475 21.3331 15 21.3331C15.5525 21.3331 16 21.7806 16 22.3331V24H24V22.3331C24 21.7806 24.4475 21.3331 25 21.3331C25.5525 21.3331 26 21.7806 26 22.3331V24H34V22.3331C34 21.7806 34.4475 21.3331 35 21.3331C35.5525 21.3331 36 21.7806 36 22.3331V24H40V18H0V24Z" fill="#959EE8"/>
</svg>
