<svg width="225" height="267" viewBox="0 0 225 267" fill="none" xmlns="http://www.w3.org/2000/svg">
<path d="M73.7192 90.8241C72.22 89.9623 70.4332 89.7378 68.752 90.2001C67.0708 90.6624 65.633 91.7737 64.7547 93.2894L44.8859 127.579C44.0077 129.094 43.761 130.89 44.2001 132.572C44.6392 134.253 45.7282 135.681 47.2275 136.543L81.146 156.041C82.6453 156.903 84.4321 157.127 86.1132 156.665C87.7944 156.203 89.2323 155.092 90.1105 153.576L109.979 119.287C110.858 117.771 111.104 115.975 110.665 114.294C110.226 112.613 109.137 111.184 107.638 110.322L73.7192 90.8241Z" fill="white" fill-opacity="0.1"/>
<path d="M98.8392 21.461C99.7175 19.9453 99.9642 18.1494 99.525 16.4682C99.0859 14.787 97.9969 13.3583 96.4976 12.4965C94.9983 11.6346 93.2115 11.4102 91.5304 11.8725C89.8492 12.3348 88.4113 13.446 87.533 14.9617L77.5987 32.1064C70.1022 27.7971 61.1684 26.6748 52.7625 28.9864C44.3566 31.2981 37.1672 36.8542 32.7759 44.4326L15.8167 34.6837C14.3174 33.8218 12.5306 33.5974 10.8495 34.0597C9.16829 34.522 7.73042 35.6332 6.85216 37.1489C5.97391 38.6646 5.72721 40.4606 6.16635 42.1418C6.60549 43.8229 7.69449 45.2516 9.19378 46.1135L26.153 55.8624L19.5301 67.2922L2.57085 57.5433C1.07156 56.6814 -0.715208 56.4569 -2.39638 56.9193C-4.07757 57.3816 -5.51544 58.4928 -6.39369 60.0085C-7.27195 61.5242 -7.51864 63.3202 -7.0795 65.0013C-6.64037 66.6825 -5.55137 68.1112 -4.05208 68.973L12.9072 78.722L6.28423 90.1518L-10.675 80.4028C-12.1743 79.541 -13.9611 79.3165 -15.6422 79.7788C-17.3234 80.2411 -18.7613 81.3524 -19.6395 82.8681C-20.5178 84.3838 -20.7645 86.1797 -20.3254 87.8609C-19.8862 89.5421 -18.7972 90.9708 -17.2979 91.8326L-0.338696 101.582L-6.96162 113.011L-23.9209 103.262C-25.4201 102.401 -27.2069 102.176 -28.8881 102.638C-30.5693 103.101 -32.0071 104.212 -32.8854 105.728C-33.7637 107.243 -34.0104 109.039 -33.5712 110.721C-33.1321 112.402 -32.0431 113.83 -30.5438 114.692L-13.5845 124.441C-17.9758 132.02 -19.2093 140.999 -17.0136 149.405C-14.8179 157.811 -9.37292 164.955 -1.87647 169.264L-11.8109 186.409C-12.6891 187.924 -12.9358 189.72 -12.4967 191.401C-12.0575 193.083 -10.9685 194.511 -9.46925 195.373C-7.96995 196.235 -6.18319 196.459 -4.50201 195.997C-2.82083 195.535 -1.38296 194.424 -0.504707 192.908L9.42969 175.763L20.7358 182.262L10.8015 199.407C9.9232 200.923 9.67651 202.719 10.1156 204.4C10.5548 206.081 11.6438 207.51 13.1431 208.372C14.6424 209.234 16.4291 209.458 18.1103 208.996C19.7915 208.533 21.2294 207.422 22.1076 205.906L32.042 188.762L43.3482 195.261L33.4138 212.406C32.5355 213.921 32.2888 215.717 32.7279 217.399C33.1671 219.08 34.2561 220.508 35.7554 221.37C37.2547 222.232 39.0415 222.457 40.7226 221.994C42.4038 221.532 43.8417 220.421 44.7199 218.905L54.6543 201.76L65.9605 208.26L56.0261 225.404C55.1478 226.92 54.9011 228.716 55.3403 230.397C55.7794 232.078 56.8684 233.507 58.3677 234.369C59.867 235.231 61.6538 235.455 63.3349 234.993C65.0161 234.531 66.454 233.419 67.3322 231.904L77.2666 214.759C84.7631 219.068 93.6969 220.191 102.103 217.879C110.509 215.567 117.698 210.011 122.089 202.433L139.049 212.182C140.548 213.044 142.335 213.268 144.016 212.806C145.697 212.343 147.135 211.232 148.013 209.716C148.891 208.201 149.138 206.405 148.699 204.724C148.26 203.042 147.171 201.614 145.672 200.752L128.712 191.003L135.335 179.573L152.294 189.322C153.794 190.184 155.581 190.408 157.262 189.946C158.943 189.484 160.381 188.373 161.259 186.857C162.137 185.341 162.384 183.545 161.945 181.864C161.506 180.183 160.417 178.754 158.917 177.892L141.958 168.143L148.581 156.714L165.54 166.463C167.04 167.324 168.826 167.549 170.508 167.087C172.189 166.624 173.627 165.513 174.505 163.997C175.383 162.482 175.63 160.686 175.191 159.004C174.752 157.323 173.663 155.895 172.163 155.033L155.204 145.284L161.827 133.854L178.786 143.603C180.285 144.465 182.072 144.689 183.753 144.227C185.435 143.765 186.872 142.653 187.751 141.138C188.629 139.622 188.876 137.826 188.437 136.145C187.997 134.464 186.908 133.035 185.409 132.173L168.45 122.424C172.841 114.846 174.075 105.866 171.879 97.46C169.683 89.0541 164.238 81.9108 156.742 77.6015L166.676 60.4568C167.554 58.9411 167.801 57.1452 167.362 55.464C166.923 53.7828 165.834 52.3541 164.335 51.4923C162.835 50.6304 161.048 50.406 159.367 50.8683C157.686 51.3306 156.248 52.4418 155.37 53.9575L145.436 71.1022L134.129 64.6029L144.064 47.4582C144.942 45.9425 145.189 44.1466 144.75 42.4654C144.311 40.7842 143.222 39.3555 141.722 38.4937C140.223 37.6318 138.436 37.4074 136.755 37.8697C135.074 38.332 133.636 39.4432 132.758 40.9589L122.823 58.1036L111.517 51.6043L121.452 34.4596C122.33 32.9439 122.576 31.148 122.137 29.4668C121.698 27.7856 120.609 26.3569 119.11 25.4951C117.611 24.6332 115.824 24.4088 114.143 24.8711C112.461 25.3334 111.024 26.4446 110.145 27.9603L100.211 45.105L88.9048 38.6057L98.8392 21.461ZM80.3422 79.3944L114.261 98.8923C118.759 101.478 122.026 105.764 123.343 110.807C124.66 115.851 123.92 121.239 121.286 125.786L101.417 160.075C98.782 164.622 94.4683 167.956 89.4248 169.343C84.3813 170.73 79.021 170.057 74.5231 167.471L40.6046 147.973C36.1068 145.387 32.8398 141.102 31.5224 136.058C30.2049 131.014 30.945 125.627 33.5798 121.079L53.4486 86.7901C56.0833 82.243 60.397 78.9094 65.4405 77.5224C70.484 76.1354 75.8443 76.8088 80.3422 79.3944Z" fill="white" fill-opacity="0.1"/>
</svg>
