<svg width="180" height="176" viewBox="0 0 180 176" fill="none" xmlns="http://www.w3.org/2000/svg">
<path d="M33.1641 -0.339394C35.9255 -5.12232 42.0414 -6.76107 46.8243 -3.99965L93.5897 23.0004C98.3726 25.7618 100.011 31.8777 97.25 36.6606L76.25 73.0337C73.4885 77.8166 67.3726 79.4553 62.5897 76.6939L15.8243 49.6939C11.0414 46.9325 9.40265 40.8166 12.1641 36.0337L33.1641 -0.339394Z" fill="white" fill-opacity="0.1"/>
<path d="M31.4121 58.694L47.0006 67.694L38.5006 82.4164L22.9121 73.4164L31.4121 58.694Z" fill="white" fill-opacity="0.1"/>
<path d="M111.953 105.194L127.542 114.194L119.042 128.916L103.453 119.916L111.953 105.194Z" fill="white" fill-opacity="0.1"/>
<path d="M53.75 112.005L69.3385 121.005L60.8385 135.727L45.25 126.727L53.75 112.005Z" fill="white" fill-opacity="0.1"/>
<path d="M22.5724 94.0047C17.7895 91.2433 16.1507 85.1274 18.9121 80.3445L22.9121 73.4164L119.042 128.916L115.041 135.844C112.28 140.627 106.164 142.266 101.381 139.505L22.5724 94.0047Z" fill="white" fill-opacity="0.1"/>
<path d="M113.703 46.1606C116.465 41.3777 122.58 39.7389 127.363 42.5004L174.129 69.5004C178.912 72.2618 180.55 78.3777 177.789 83.1606L156.789 119.534C154.028 124.317 147.912 125.955 143.129 123.194L96.3634 96.1939C91.5805 93.4325 89.9417 87.3166 92.7031 82.5337L113.703 46.1606Z" fill="white" fill-opacity="0.1"/>
<path d="M16 121.387C18.7614 116.604 24.8773 114.966 29.6603 117.727L76.4256 144.727C81.2086 147.489 82.8473 153.604 80.0859 158.387L59.0859 194.76C56.3245 199.543 50.2086 201.182 45.4256 198.421L-1.33973 171.421C-6.12266 168.659 -7.76141 162.543 -4.99998 157.76L16 121.387Z" fill="white" fill-opacity="0.1"/>
</svg>
