<svg width="14" height="18" fill="none" xmlns="http://www.w3.org/2000/svg">
  <path
    d="M13.25.25H2.781a.157.157 0 00-.156.156V1.5c0 .086.07.156.156.156h9.688v13.438c0 .086.07.156.156.156h1.094c.086 0 .156-.07.156-.156V.875A.624.624 0 0013.25.25zm-2.5 2.5h-10a.624.624 0 00-.625.625V13.74c0 .166.066.325.184.442l3.384 3.384a.646.646 0 00.145.108v.037h.082c.068.025.14.039.215.039h6.615c.346 0 .625-.28.625-.625V3.375a.624.624 0 00-.625-.625zM3.836 15.723l-1.682-1.684h1.682v1.684zm6.133.62H5.086V13.57a.781.781 0 00-.781-.78H1.53V4.155H9.97v12.188z"
    fill="#fff" />
</svg>