<svg width="16" height="16" viewBox="0 0 16 16" fill="none" xmlns="http://www.w3.org/2000/svg">
  <path
    d="M16 4.87266C16.0004 4.71992 15.9705 4.56862 15.9121 4.4275C15.8536 4.28639 15.7678 4.15827 15.6595 4.05056L11.9488 0.339847C11.7306 0.122215 11.435 0 11.1269 0C10.8187 0 10.5231 0.122215 10.3049 0.339847L0.340448 10.3046C0.226744 10.4183 0.13795 10.5545 0.0797147 10.7044L0.0772237 10.7115C0.0263106 10.844 0.000136252 10.9848 0 11.1267V14.8374C0.000351635 15.1457 0.122943 15.4412 0.340879 15.6591C0.558815 15.8771 0.854299 15.9996 1.16251 16H15.1126C15.2447 16 15.3714 15.9475 15.4649 15.8541C15.5583 15.7606 15.6108 15.6339 15.6108 15.5018C15.6108 15.3696 15.5583 15.2429 15.4649 15.1495C15.3714 15.056 15.2447 15.0035 15.1126 15.0035H6.35102L15.6594 5.69475C15.7677 5.58706 15.8536 5.45894 15.912 5.31783C15.9705 5.17672 16.0004 5.02541 16 4.87266ZM1.20278 10.8515L8.46969 3.5843L12.4152 7.52993L5.14824 14.7972L1.20278 10.8515ZM0.996434 14.8374V12.0544L3.94546 15.0035H1.16251C1.11848 15.0035 1.07628 14.9859 1.04515 14.9548C1.01402 14.9237 0.9965 14.8815 0.996434 14.8374ZM14.9548 4.99008L13.1197 6.82534L9.17425 2.8797L11.0094 1.04452C11.0406 1.01344 11.0828 0.995985 11.1269 0.995985C11.1709 0.995985 11.2131 1.01344 11.2443 1.04452L14.9549 4.75524C14.9703 4.77066 14.9826 4.78896 14.9909 4.80911C14.9993 4.82926 15.0036 4.85085 15.0036 4.87266C15.0036 4.89447 14.9993 4.91606 14.9909 4.93621C14.9826 4.95636 14.9703 4.97466 14.9549 4.99008H14.9548Z"
    fill="white" />
</svg>