<svg width="35" height="20" viewBox="0 0 35 20" fill="none" xmlns="http://www.w3.org/2000/svg">
<path d="M9.76363 7.26403C9.76363 7.67578 9.80873 8.00915 9.88719 8.25402C9.97701 8.49889 10.0896 8.76551 10.2469 9.05501C10.303 9.14389 10.3257 9.23313 10.3257 9.31076C10.3257 9.42213 10.2582 9.53313 10.1119 9.6445L9.40358 10.1117C9.30238 10.1785 9.20119 10.2119 9.11137 10.2119C8.9988 10.2119 8.88662 10.1564 8.77405 10.0562C8.61677 9.88938 8.48184 9.71125 8.36928 9.53351C8.25671 9.34451 8.14453 9.13301 8.0206 8.87726C7.14358 9.90063 6.04182 10.4121 4.71531 10.4121C3.77083 10.4121 3.01775 10.1451 2.46668 9.61113C1.91599 9.07714 1.63477 8.3654 1.63477 7.47553C1.63477 6.53017 1.97208 5.76255 2.6577 5.18431C3.34331 4.60607 4.25406 4.31657 5.41191 4.31657C5.79433 4.31657 6.18773 4.34995 6.6035 4.40544C7.01965 4.46094 7.44678 4.55019 7.89628 4.65032V3.83845C7.89628 2.99321 7.71626 2.40372 7.36795 2.05872C7.00828 1.71373 6.40111 1.54723 5.53547 1.54723C5.14206 1.54723 4.73729 1.59185 4.32114 1.69198C3.905 1.7921 3.50136 1.9136 3.10795 2.06922C2.92793 2.14722 2.793 2.19147 2.71455 2.21397C2.63571 2.2361 2.57962 2.24735 2.53452 2.24735C2.37723 2.24735 2.2984 2.13597 2.2984 1.90235V1.35748C2.2984 1.17936 2.32076 1.04586 2.37723 0.968238C2.43333 0.890239 2.53452 0.812615 2.69219 0.734616C3.08559 0.534368 3.55783 0.367495 4.10852 0.233997C4.65921 0.0892489 5.24402 0.0224997 5.86217 0.0224997C7.20005 0.0224997 8.17788 0.322871 8.80779 0.923613C9.42594 1.52436 9.74089 2.43634 9.74089 3.65995V7.26403H9.76363ZM5.19891 8.95451C5.56996 8.95451 5.95199 8.88776 6.35677 8.75426C6.76155 8.62077 7.12122 8.37589 7.4248 8.04252C7.60483 7.83103 7.73975 7.5974 7.80722 7.33078C7.87468 7.06379 7.91978 6.74129 7.91978 6.36292V5.89568C7.59384 5.81768 7.24515 5.75093 6.88548 5.70668C6.52581 5.66243 6.17712 5.63993 5.82882 5.63993C5.07574 5.63993 4.52467 5.78468 4.15362 6.08505C3.78258 6.38542 3.60293 6.80804 3.60293 7.36416C3.60293 7.8869 3.73786 8.27615 4.01908 8.54314C4.28855 8.82101 4.68195 8.95451 5.19891 8.95451ZM14.2268 10.156C14.0244 10.156 13.8895 10.1226 13.7996 10.0446C13.7098 9.97788 13.631 9.82225 13.5635 9.61075L10.9215 1.01249C10.854 0.790115 10.8203 0.645367 10.8203 0.567368C10.8203 0.389245 10.9101 0.289121 11.0901 0.289121H12.1919C12.4057 0.289121 12.5516 0.322496 12.6304 0.400495C12.7202 0.467244 12.7877 0.622867 12.8552 0.834365L14.7437 8.19815L16.4974 0.834365C16.5535 0.611992 16.6209 0.467244 16.7111 0.400495C16.801 0.333746 16.9586 0.289121 17.161 0.289121H18.0604C18.2742 0.289121 18.4201 0.322496 18.5103 0.400495C18.6001 0.467244 18.6789 0.622867 18.724 0.834365L20.5004 8.28702L22.4447 0.83474C22.5122 0.612367 22.591 0.467619 22.6695 0.40087C22.7593 0.334121 22.9056 0.289496 23.108 0.289496H24.1536C24.3337 0.289496 24.4349 0.37837 24.4349 0.567743C24.4349 0.623242 24.4235 0.679116 24.4125 0.745866C24.4011 0.812615 24.3788 0.901489 24.3337 1.02411L21.6242 9.62238C21.5567 9.84475 21.4779 9.9895 21.388 10.0562C21.2982 10.123 21.1519 10.1676 20.9609 10.1676H19.9941C19.7803 10.1676 19.6344 10.1342 19.5442 10.0562C19.4544 9.97825 19.3755 9.83388 19.3304 9.61113L17.5882 2.43634L15.8569 9.59988C15.8008 9.82225 15.7333 9.967 15.6431 10.045C15.5533 10.123 15.3956 10.1564 15.1932 10.1564H14.2268V10.156ZM28.6729 10.4564C28.0885 10.4564 27.5036 10.3896 26.9416 10.2561C26.3795 10.1226 25.941 9.97787 25.6488 9.811C25.4688 9.71088 25.3452 9.5995 25.3001 9.49938C25.255 9.39926 25.2327 9.28788 25.2327 9.18776V8.62039C25.2327 8.38677 25.3225 8.2754 25.4911 8.2754C25.5586 8.2754 25.6261 8.28665 25.6935 8.30877C25.761 8.3309 25.8622 8.37552 25.9747 8.42014C26.3572 8.58702 26.7729 8.72052 27.2114 8.80939C27.6613 8.89826 28.0994 8.94289 28.5493 8.94289C29.2577 8.94289 29.8084 8.82064 30.1908 8.57577C30.5732 8.3309 30.7752 7.97503 30.7752 7.51903C30.7752 7.20741 30.674 6.95166 30.4716 6.74054C30.2692 6.52904 29.8872 6.34005 29.3361 6.1623L27.706 5.66168C26.8855 5.40593 26.2783 5.02756 25.9073 4.52694C25.5362 4.03757 25.3452 3.49233 25.3452 2.91409C25.3452 2.44684 25.4464 2.03547 25.6488 1.67923C25.8512 1.32298 26.121 1.01174 26.4584 0.76724C26.7957 0.511494 27.1777 0.322121 27.6276 0.188998C28.0775 0.0558743 28.5493 0 29.0439 0C29.2914 0 29.5499 0.0112499 29.797 0.0446244C30.0555 0.077999 30.2916 0.122623 30.5277 0.166873C30.7525 0.222372 30.9662 0.278246 31.1686 0.344996C31.371 0.411745 31.5283 0.478494 31.6408 0.545243C31.7981 0.634117 31.9107 0.723366 31.9782 0.82349C32.0456 0.912363 32.0794 1.03499 32.0794 1.19061V1.71335C32.0794 1.94698 31.9895 2.06922 31.8209 2.06922C31.7311 2.06922 31.5848 2.0246 31.3937 1.93573C30.7528 1.6466 30.0335 1.50186 29.2353 1.50186C28.5944 1.50186 28.0885 1.60198 27.7401 1.81348C27.3915 2.02497 27.2118 2.34747 27.2118 2.80346C27.2118 3.11509 27.3244 3.38171 27.5491 3.59321C27.7739 3.8047 28.19 4.01582 28.7858 4.20482L30.3822 4.70544C31.1917 4.96119 31.7762 5.31706 32.1248 5.77343C32.4735 6.22942 32.6418 6.75217 32.6418 7.33078C32.6418 7.8089 32.5406 8.24277 32.3496 8.62114C32.1472 8.99951 31.8773 9.33288 31.529 9.59988C31.1804 9.87813 30.7646 10.078 30.281 10.2227C29.7746 10.3784 29.2463 10.4564 28.6729 10.4564Z" fill="white"/>
<path fill-rule="evenodd" clip-rule="evenodd" d="M30.7977 15.8626C27.099 18.5655 21.7255 20.0003 17.1047 20.0003C10.629 20.0003 4.79429 17.631 0.387614 13.6932C0.038931 13.3816 0.353883 12.959 0.770029 13.2039C5.53675 15.9402 11.4162 17.5977 17.4985 17.5977C21.602 17.5977 26.1102 16.7524 30.2584 15.017C30.8765 14.7391 31.4049 15.4175 30.7977 15.8626Z" fill="white"/>
<path fill-rule="evenodd" clip-rule="evenodd" d="M32.338 14.1271C31.8657 13.5263 29.2127 13.838 28.0098 13.9823C27.6501 14.027 27.5936 13.7153 27.9199 13.4817C30.0336 12.0136 33.5072 12.4362 33.912 12.9256C34.3168 13.4262 33.7994 16.8634 31.821 18.5097C31.5174 18.7654 31.2252 18.6319 31.3602 18.2982C31.8097 17.1972 32.8102 14.717 32.338 14.1271Z" fill="white"/>
</svg>
