<svg width="34" height="20" viewBox="0 0 34 20" fill="none" xmlns="http://www.w3.org/2000/svg">
<path d="M9.52599 7.26403C9.52599 7.67578 9.57109 8.00915 9.64955 8.25402C9.73937 8.49889 9.85194 8.76551 10.0092 9.05501C10.0653 9.14388 10.0881 9.23313 10.0881 9.31076C10.0881 9.42213 10.0206 9.53313 9.8743 9.6445L9.16594 10.1117C9.06474 10.1785 8.96355 10.2119 8.87373 10.2119C8.76116 10.2119 8.64898 10.1564 8.53641 10.0562C8.37913 9.88938 8.2442 9.71125 8.13164 9.53351C8.01907 9.34451 7.90689 9.13301 7.78296 8.87726C6.90594 9.90063 5.80418 10.4121 4.47767 10.4121C3.53319 10.4121 2.78011 10.1451 2.22904 9.61113C1.67835 9.07714 1.39713 8.36539 1.39713 7.47553C1.39713 6.53017 1.73444 5.76255 2.42006 5.18431C3.10567 4.60607 4.01642 4.31657 5.17427 4.31657C5.55669 4.31657 5.95009 4.34995 6.36586 4.40544C6.78201 4.46094 7.20914 4.55019 7.65864 4.65032V3.83845C7.65864 2.99321 7.47862 2.40372 7.13031 2.05872C6.77064 1.71373 6.16347 1.54723 5.29783 1.54723C4.90442 1.54723 4.49965 1.59185 4.0835 1.69198C3.66736 1.7921 3.26372 1.9136 2.87031 2.06922C2.69029 2.14722 2.55536 2.19147 2.47691 2.21397C2.39807 2.2361 2.34198 2.24735 2.29688 2.24735C2.13959 2.24735 2.06076 2.13597 2.06076 1.90235V1.35748C2.06076 1.17936 2.08312 1.04586 2.13959 0.968238C2.19569 0.890239 2.29688 0.812615 2.45455 0.734616C2.84795 0.534368 3.32019 0.367495 3.87088 0.233997C4.42157 0.0892489 5.00638 0.0224997 5.62453 0.0224997C6.96241 0.0224997 7.94024 0.322871 8.57014 0.923613C9.1883 1.52436 9.50325 2.43634 9.50325 3.65995V7.26403H9.52599ZM4.96127 8.95451C5.33232 8.95451 5.71435 8.88776 6.11913 8.75426C6.52391 8.62077 6.88358 8.37589 7.18716 8.04252C7.36719 7.83103 7.50211 7.5974 7.56958 7.33078C7.63704 7.06379 7.68214 6.74129 7.68214 6.36292V5.89568C7.3562 5.81768 7.00751 5.75093 6.64784 5.70668C6.28817 5.66243 5.93948 5.63993 5.59118 5.63993C4.8381 5.63993 4.28703 5.78468 3.91598 6.08505C3.54494 6.38542 3.36529 6.80804 3.36529 7.36416C3.36529 7.8869 3.50022 8.27615 3.78144 8.54314C4.05091 8.82101 4.44431 8.95451 4.96127 8.95451ZM13.9891 10.156C13.7867 10.156 13.6518 10.1226 13.562 10.0446C13.4722 9.97787 13.3933 9.82225 13.3259 9.61075L10.6838 1.01249C10.6164 0.790115 10.5827 0.645367 10.5827 0.567368C10.5827 0.389245 10.6725 0.289121 10.8525 0.289121H11.9543C12.168 0.289121 12.3139 0.322496 12.3928 0.400495C12.4826 0.467244 12.5501 0.622867 12.6175 0.834365L14.5061 8.19815L16.2597 0.834365C16.3158 0.611992 16.3833 0.467244 16.4735 0.400495C16.5633 0.333746 16.721 0.289121 16.9234 0.289121H17.8228C18.0365 0.289121 18.1824 0.322496 18.2726 0.400495C18.3625 0.467244 18.4413 0.622867 18.4864 0.834365L20.2628 8.28702L22.2071 0.83474C22.2745 0.612367 22.3534 0.467619 22.4318 0.40087C22.5216 0.334121 22.6679 0.289496 22.8703 0.289496H23.916C24.096 0.289496 24.1972 0.37837 24.1972 0.567743C24.1972 0.623242 24.1858 0.679116 24.1749 0.745866C24.1635 0.812615 24.1411 0.901489 24.096 1.02411L21.3865 9.62238C21.3191 9.84475 21.2402 9.9895 21.1504 10.0562C21.0606 10.123 20.9143 10.1676 20.7233 10.1676H19.7564C19.5427 10.1676 19.3968 10.1342 19.3066 10.0562C19.2167 9.97825 19.1379 9.83388 19.0928 9.61113L17.3505 2.43634L15.6192 9.59988C15.5631 9.82225 15.4957 9.967 15.4055 10.045C15.3156 10.123 15.158 10.1564 14.9556 10.1564H13.9891V10.156ZM28.4352 10.4564C27.8508 10.4564 27.266 10.3896 26.7039 10.2561C26.1419 10.1226 25.7034 9.97787 25.4112 9.811C25.2311 9.71088 25.1076 9.5995 25.0625 9.49938C25.0174 9.39926 24.995 9.28788 24.995 9.18776V8.62039C24.995 8.38677 25.0848 8.2754 25.2535 8.2754C25.321 8.2754 25.3884 8.28665 25.4559 8.30877C25.5234 8.3309 25.6245 8.37552 25.7371 8.42014C26.1195 8.58702 26.5353 8.72052 26.9738 8.80939C27.4237 8.89826 27.8618 8.94289 28.3117 8.94289C29.02 8.94289 29.5707 8.82064 29.9531 8.57577C30.3356 8.3309 30.5376 7.97503 30.5376 7.51903C30.5376 7.20741 30.4364 6.95166 30.234 6.74054C30.0316 6.52904 29.6496 6.34005 29.0985 6.1623L27.4684 5.66168C26.6479 5.40593 26.0407 5.02756 25.6696 4.52694C25.2986 4.03757 25.1076 3.49233 25.1076 2.91409C25.1076 2.44684 25.2088 2.03547 25.4112 1.67923C25.6136 1.32298 25.8834 1.01174 26.2207 0.76724C26.558 0.511494 26.9401 0.322121 27.3899 0.188998C27.8398 0.0558743 28.3117 0 28.8063 0C29.0538 0 29.3123 0.0112499 29.5594 0.0446244C29.8178 0.077999 30.054 0.122623 30.2901 0.166873C30.5148 0.222372 30.7286 0.278246 30.931 0.344996C31.1334 0.411745 31.2906 0.478494 31.4032 0.545243C31.5605 0.634117 31.6731 0.723366 31.7405 0.82349C31.808 0.912363 31.8417 1.03499 31.8417 1.19061V1.71335C31.8417 1.94698 31.7519 2.06922 31.5832 2.06922C31.4934 2.06922 31.3471 2.0246 31.1561 1.93573C30.5152 1.6466 29.7959 1.50186 28.9977 1.50186C28.3568 1.50186 27.8508 1.60198 27.5025 1.81348C27.1538 2.02497 26.9742 2.34747 26.9742 2.80346C26.9742 3.11509 27.0867 3.38171 27.3115 3.5932C27.5362 3.8047 27.9524 4.01582 28.5482 4.20482L30.1445 4.70544C30.9541 4.96119 31.5385 5.31706 31.8872 5.77343C32.2359 6.22942 32.4042 6.75217 32.4042 7.33078C32.4042 7.8089 32.303 8.24277 32.1119 8.62114C31.9096 8.99951 31.6397 9.33288 31.2914 9.59988C30.9427 9.87813 30.527 10.078 30.0433 10.2227C29.537 10.3784 29.0087 10.4564 28.4352 10.4564Z" fill="#252F3E"/>
<path fill-rule="evenodd" clip-rule="evenodd" d="M30.5599 15.8626C26.8612 18.5655 21.4877 20.0003 16.8669 20.0003C10.3913 20.0003 4.55649 17.631 0.149821 13.6932C-0.198862 13.3816 0.11609 12.959 0.532236 13.2039C5.29896 15.9402 11.1784 17.5977 17.2607 17.5977C21.3642 17.5977 25.8724 16.7524 30.0206 15.017C30.6388 14.7391 31.1671 15.4175 30.5599 15.8626Z" fill="#FF9900"/>
<path fill-rule="evenodd" clip-rule="evenodd" d="M32.1002 14.1271C31.628 13.5263 28.9749 13.838 27.772 13.9823C27.4123 14.027 27.3558 13.7153 27.6821 13.4817C29.7958 12.0136 33.2694 12.4362 33.6742 12.9256C34.079 13.4262 33.5616 16.8634 31.5832 18.5097C31.2796 18.7654 30.9874 18.6319 31.1224 18.2982C31.5719 17.1972 32.5724 14.717 32.1002 14.1271Z" fill="#FF9900"/>
</svg>
