<svg width="16" height="16" viewBox="0 0 16 16" fill="none" xmlns="http://www.w3.org/2000/svg">
<path d="M1.33333 0.5L14.6667 0.5C14.8877 0.5 15.0996 0.587797 15.2559 0.744078C15.4122 0.900358 15.5 1.11232 15.5 1.33333V7.16667H0.5L0.5 1.33333C0.5 1.11232 0.587797 0.900358 0.744078 0.744078C0.900358 0.587797 1.11232 0.5 1.33333 0.5ZM0.5 8.83333H15.5V14.6667C15.5 14.8877 15.4122 15.0996 15.2559 15.2559C15.0996 15.4122 14.8877 15.5 14.6667 15.5H1.33333C1.11232 15.5 0.900358 15.4122 0.744078 15.2559C0.587797 15.0996 0.5 14.8877 0.5 14.6667L0.5 8.83333ZM3.83333 11.3333V13H6.33333V11.3333H3.83333ZM3.83333 3V4.66667H6.33333V3H3.83333Z" fill="#CBCED0"/>
</svg>
