<svg width="20" height="18" viewBox="0 0 20 18" fill="none" xmlns="http://www.w3.org/2000/svg">
<path d="M10.9 2.55C10.9 3.54411 8.68381 4.35 5.95 4.35C3.21619 4.35 1 3.54411 1 2.55M10.9 2.55C10.9 1.55589 8.68381 0.75 5.95 0.75C3.21619 0.75 1 1.55589 1 2.55M10.9 2.55V6.56143C9.80065 6.89158 9.1 7.39104 9.1 7.95M1 2.55V13.35C1 14.3441 3.21619 15.15 5.95 15.15C7.14667 15.15 8.24415 14.9956 9.1 14.7386V7.95M1 6.15C1 7.14411 3.21619 7.95 5.95 7.95C7.14667 7.95 8.24415 7.79559 9.1 7.53856M1 9.75C1 10.7441 3.21619 11.55 5.95 11.55C7.14667 11.55 8.24415 11.3956 9.1 11.1386M19 7.95C19 8.94411 16.7838 9.75 14.05 9.75C11.3162 9.75 9.1 8.94411 9.1 7.95M19 7.95C19 6.95589 16.7838 6.15 14.05 6.15C11.3162 6.15 9.1 6.95589 9.1 7.95M19 7.95V15.15C19 16.1441 16.7838 16.95 14.05 16.95C11.3162 16.95 9.1 16.1441 9.1 15.15V7.95M19 11.55C19 12.5441 16.7838 13.35 14.05 13.35C11.3162 13.35 9.1 12.5441 9.1 11.55" stroke="#9596A0" stroke-linecap="round" stroke-linejoin="round"/>
</svg>
