<svg width="18" height="16" viewBox="0 0 18 16" fill="none" xmlns="http://www.w3.org/2000/svg">
<path d="M1.5 15.5C1.27899 15.5 1.06703 15.4122 0.910746 15.2559C0.754465 15.0996 0.666668 14.8877 0.666668 14.6667V1.33333C0.666668 1.11232 0.754465 0.900358 0.910746 0.744078C1.06703 0.587797 1.27899 0.5 1.5 0.5H7.67833L9.345 2.16667H15.6667C15.8877 2.16667 16.0996 2.25446 16.2559 2.41074C16.4122 2.56702 16.5 2.77899 16.5 3V5.5H2.33333V13.83L4 7.16667H17.75L15.825 14.8692C15.7799 15.0494 15.6758 15.2093 15.5293 15.3236C15.3829 15.4379 15.2024 15.5 15.0167 15.5H1.5V15.5Z" fill="#CBCED0"/>
</svg>
