<svg width="50" height="34" viewBox="0 0 50 34" fill="none" xmlns="http://www.w3.org/2000/svg">
<path d="M50 9.42489L50 3.36429C50 2.5606 49.6708 1.78983 49.0847 1.22154C48.4987 0.653247 47.7038 0.333984 46.875 0.333984L3.125 0.333984C2.2962 0.333984 1.50134 0.653247 0.915291 1.22154C0.32924 1.78983 0 2.5606 0 3.36429L0 9.42489H3.125L3.125 15.4855H0L0 30.637C0 31.4407 0.32924 32.2115 0.915291 32.7798C1.50134 33.3481 2.2962 33.6673 3.125 33.6673H22.8281L22.8281 28.44H26.5625L26.5625 33.6673H46.875C47.7038 33.6673 48.4987 33.3481 49.0847 32.7798C49.6708 32.2115 50 31.4407 50 30.637L50 15.4855H46.875V9.42489H50ZM15.625 20.031H9.375L9.375 7.90974H15.625L15.625 20.031ZM28.125 20.031H21.875L21.875 7.90974L28.125 7.90974L28.125 20.031ZM40.625 20.031L34.375 20.031L34.375 7.90974H40.625L40.625 20.031Z" fill="#717987"/>
</svg>
