<svg width="50" height="50" viewBox="0 0 50 50" fill="none" xmlns="http://www.w3.org/2000/svg">
<path d="M20.3125 18.75C19.8981 18.75 19.5006 18.9146 19.2076 19.2076C18.9146 19.5007 18.75 19.8981 18.75 20.3125V29.6875C18.75 30.1019 18.9146 30.4993 19.2076 30.7924C19.5006 31.0854 19.8981 31.25 20.3125 31.25H29.6875C30.1019 31.25 30.4993 31.0854 30.7923 30.7924C31.0853 30.4993 31.25 30.1019 31.25 29.6875V20.3125C31.25 19.8981 31.0853 19.5007 30.7923 19.2076C30.4993 18.9146 30.1019 18.75 29.6875 18.75H20.3125Z" fill="#717987"/>
<path d="M17.1875 1.5625C17.1875 1.1481 17.0229 0.750671 16.7299 0.457646C16.4368 0.16462 16.0394 0 15.625 0C15.2106 0 14.8132 0.16462 14.5201 0.457646C14.2271 0.750671 14.0625 1.1481 14.0625 1.5625V6.25C11.9905 6.25 10.0034 7.0731 8.53823 8.53823C7.0731 10.0034 6.25 11.9905 6.25 14.0625H1.5625C1.1481 14.0625 0.750671 14.2271 0.457646 14.5201C0.16462 14.8132 0 15.2106 0 15.625C0 16.0394 0.16462 16.4368 0.457646 16.7299C0.750671 17.0229 1.1481 17.1875 1.5625 17.1875H6.25V20.3125H1.5625C1.1481 20.3125 0.750671 20.4771 0.457646 20.7701C0.16462 21.0632 0 21.4606 0 21.875C0 22.2894 0.16462 22.6868 0.457646 22.9799C0.750671 23.2729 1.1481 23.4375 1.5625 23.4375H6.25V26.5625H1.5625C1.1481 26.5625 0.750671 26.7271 0.457646 27.0201C0.16462 27.3132 0 27.7106 0 28.125C0 28.5394 0.16462 28.9368 0.457646 29.2299C0.750671 29.5229 1.1481 29.6875 1.5625 29.6875H6.25V32.8125H1.5625C1.1481 32.8125 0.750671 32.9771 0.457646 33.2701C0.16462 33.5632 0 33.9606 0 34.375C0 34.7894 0.16462 35.1868 0.457646 35.4799C0.750671 35.7729 1.1481 35.9375 1.5625 35.9375H6.25C6.25 38.0095 7.0731 39.9966 8.53823 41.4618C10.0034 42.9269 11.9905 43.75 14.0625 43.75V48.4375C14.0625 48.8519 14.2271 49.2493 14.5201 49.5424C14.8132 49.8354 15.2106 50 15.625 50C16.0394 50 16.4368 49.8354 16.7299 49.5424C17.0229 49.2493 17.1875 48.8519 17.1875 48.4375V43.75H20.3125V48.4375C20.3125 48.8519 20.4771 49.2493 20.7701 49.5424C21.0632 49.8354 21.4606 50 21.875 50C22.2894 50 22.6868 49.8354 22.9799 49.5424C23.2729 49.2493 23.4375 48.8519 23.4375 48.4375V43.75H26.5625V48.4375C26.5625 48.8519 26.7271 49.2493 27.0201 49.5424C27.3132 49.8354 27.7106 50 28.125 50C28.5394 50 28.9368 49.8354 29.2299 49.5424C29.5229 49.2493 29.6875 48.8519 29.6875 48.4375V43.75H32.8125V48.4375C32.8125 48.8519 32.9771 49.2493 33.2701 49.5424C33.5632 49.8354 33.9606 50 34.375 50C34.7894 50 35.1868 49.8354 35.4799 49.5424C35.7729 49.2493 35.9375 48.8519 35.9375 48.4375V43.75C38.0095 43.75 39.9966 42.9269 41.4618 41.4618C42.9269 39.9966 43.75 38.0095 43.75 35.9375H48.4375C48.8519 35.9375 49.2493 35.7729 49.5424 35.4799C49.8354 35.1868 50 34.7894 50 34.375C50 33.9606 49.8354 33.5632 49.5424 33.2701C49.2493 32.9771 48.8519 32.8125 48.4375 32.8125H43.75V29.6875H48.4375C48.8519 29.6875 49.2493 29.5229 49.5424 29.2299C49.8354 28.9368 50 28.5394 50 28.125C50 27.7106 49.8354 27.3132 49.5424 27.0201C49.2493 26.7271 48.8519 26.5625 48.4375 26.5625H43.75V23.4375H48.4375C48.8519 23.4375 49.2493 23.2729 49.5424 22.9799C49.8354 22.6868 50 22.2894 50 21.875C50 21.4606 49.8354 21.0632 49.5424 20.7701C49.2493 20.4771 48.8519 20.3125 48.4375 20.3125H43.75V17.1875H48.4375C48.8519 17.1875 49.2493 17.0229 49.5424 16.7299C49.8354 16.4368 50 16.0394 50 15.625C50 15.2106 49.8354 14.8132 49.5424 14.5201C49.2493 14.2271 48.8519 14.0625 48.4375 14.0625H43.75C43.75 11.9905 42.9269 10.0034 41.4618 8.53823C39.9966 7.0731 38.0095 6.25 35.9375 6.25V1.5625C35.9375 1.1481 35.7729 0.750671 35.4799 0.457646C35.1868 0.16462 34.7894 0 34.375 0C33.9606 0 33.5632 0.16462 33.2701 0.457646C32.9771 0.750671 32.8125 1.1481 32.8125 1.5625V6.25H29.6875V1.5625C29.6875 1.1481 29.5229 0.750671 29.2299 0.457646C28.9368 0.16462 28.5394 0 28.125 0C27.7106 0 27.3132 0.16462 27.0201 0.457646C26.7271 0.750671 26.5625 1.1481 26.5625 1.5625V6.25H23.4375V1.5625C23.4375 1.1481 23.2729 0.750671 22.9799 0.457646C22.6868 0.16462 22.2894 0 21.875 0C21.4606 0 21.0632 0.16462 20.7701 0.457646C20.4771 0.750671 20.3125 1.1481 20.3125 1.5625V6.25H17.1875V1.5625ZM20.3125 15.625H29.6875C30.9307 15.625 32.123 16.1189 33.0021 16.9979C33.8811 17.877 34.375 19.0693 34.375 20.3125V29.6875C34.375 30.9307 33.8811 32.123 33.0021 33.0021C32.123 33.8811 30.9307 34.375 29.6875 34.375H20.3125C19.0693 34.375 17.877 33.8811 16.9979 33.0021C16.1189 32.123 15.625 30.9307 15.625 29.6875V20.3125C15.625 19.0693 16.1189 17.877 16.9979 16.9979C17.877 16.1189 19.0693 15.625 20.3125 15.625Z" fill="#717987"/>
</svg>
