<svg width="50" height="38" viewBox="0 0 50 38" fill="none" xmlns="http://www.w3.org/2000/svg">
<path d="M45.1457 2.49425C44.9535 1.81215 44.5576 1.21393 44.0169 0.788865C43.4762 0.363803 42.8198 0.134698 42.1457 0.135746H7.95818C7.27328 0.135202 6.60718 0.372178 6.06233 0.810224C5.51748 1.24827 5.12405 1.86313 4.94255 2.56022L0.50505 21.5767H49.5988L45.1457 2.49425Z" fill="#717987"/>
<path d="M0 23.0303V34.5754C0 35.4503 0.32924 36.2893 0.915291 36.9079C1.50134 37.5265 2.2962 37.8741 3.125 37.8741H46.875C47.7038 37.8741 48.4987 37.5265 49.0847 36.9079C49.6708 36.2893 50 35.4503 50 34.5754V23.0303H0ZM43.75 31.2768H37.5V27.9782H43.75V31.2768Z" fill="#717987"/>
</svg>
