<svg width="16" height="13" viewBox="0 0 16 13" fill="none" xmlns="http://www.w3.org/2000/svg">
<path d="M1.46875 6.875H14.5312M3.875 9.625H6.625M5.91451 1.375H10.0855C10.8258 1.375 11.196 1.375 11.5228 1.48773C11.8118 1.58741 12.0751 1.7501 12.2935 1.96401C12.5405 2.20591 12.706 2.53701 13.0371 3.1992L14.5266 6.17822C14.6565 6.43808 14.7215 6.56802 14.7673 6.70419C14.808 6.82512 14.8374 6.94957 14.8551 7.07593C14.875 7.21822 14.875 7.36349 14.875 7.65402V9.075C14.875 10.2301 14.875 10.8077 14.6502 11.2489C14.4525 11.6369 14.1369 11.9525 13.7489 12.1502C13.3077 12.375 12.7301 12.375 11.575 12.375H4.425C3.26989 12.375 2.69234 12.375 2.25114 12.1502C1.86306 11.9525 1.54754 11.6369 1.3498 11.2489C1.125 10.8077 1.125 10.2301 1.125 9.075V7.65402C1.125 7.36349 1.125 7.21822 1.14492 7.07593C1.16261 6.94957 1.19199 6.82512 1.23268 6.70419C1.27849 6.56802 1.34346 6.43808 1.47339 6.17822L2.9629 3.19919C3.294 2.53701 3.45954 2.20591 3.70652 1.96401C3.92493 1.7501 4.18817 1.58741 4.47717 1.48773C4.80399 1.375 5.17416 1.375 5.91451 1.375Z" stroke="#9596A0" stroke-linecap="round" stroke-linejoin="round"/>
</svg>
