<svg width="67" height="10" viewBox="0 0 67 10" fill="none" xmlns="http://www.w3.org/2000/svg">
<path d="M28.6459 9.26808L25.7509 1.26325C25.7137 1.15229 25.6585 1.00647 25.6585 0.878441C25.6585 0.531332 25.9536 0.202006 26.377 0.202006C26.746 0.202006 26.9867 0.440287 27.097 0.786685L29.4962 7.68405L31.9126 0.766769C32.0229 0.438865 32.2443 0.200583 32.6111 0.200583H32.6863C33.0746 0.200583 33.3139 0.438865 33.4242 0.766769L35.8206 7.68405L38.2577 0.749698C38.3502 0.455224 38.5515 0.200583 38.9397 0.200583C39.3452 0.200583 39.6411 0.509994 39.6411 0.859236C39.6411 0.987268 39.5852 1.13237 39.5487 1.24404L36.6351 9.26737C36.4861 9.68632 36.1924 9.90682 35.86 9.90682H35.8048C35.4359 9.90682 35.1586 9.68703 35.0282 9.26737L32.6505 2.46532L30.252 9.26737C30.1231 9.68632 29.8451 9.90682 29.4776 9.90682H29.4389C29.0886 9.90682 28.7942 9.68703 28.6459 9.26808ZM49.7509 0.899779C49.7509 0.51355 50.0646 0.183512 50.4522 0.183512C50.8606 0.183512 51.1736 0.495768 51.1736 0.899779V2.52436C51.875 0.946725 53.431 0.202006 54.4619 0.202006C54.8889 0.202006 55.1661 0.51355 55.1661 0.91685C55.1661 1.30237 54.9089 1.57621 54.5357 1.6317C52.6874 1.85148 51.1736 3.22783 51.1736 5.96273V9.17917C51.1736 9.56469 50.8785 9.89402 50.4723 9.89402C50.0654 9.89402 49.7516 9.58105 49.7516 9.17917L49.7509 0.899779ZM59.731 9.98293C57.1591 9.98293 55.0594 8.0027 55.0594 5.0978V5.0601C55.0594 2.35508 56.9614 0.176399 59.5504 0.176399C62.3186 0.176399 63.8954 2.44399 63.8954 4.93278C63.8954 5.31546 63.5845 5.58859 63.2427 5.58859H56.4742C56.672 7.62074 58.1012 8.76449 59.7689 8.76449C60.9281 8.76449 61.7763 8.31069 62.4655 7.6748C62.5743 7.58518 62.7004 7.51263 62.8645 7.51263C63.2076 7.51263 63.4799 7.78505 63.4799 8.11295C63.4799 8.27584 63.4075 8.43943 63.2606 8.56533C62.3745 9.41817 61.3228 9.98293 59.731 9.98293ZM62.5006 4.55367C62.3551 2.84515 61.3772 1.35785 59.5118 1.35785C57.8827 1.35785 56.6512 2.71854 56.4721 4.55367H62.5006ZM39.6655 7.04318V7.00619C39.6655 5.01316 41.3239 3.95121 43.736 3.95121C44.9524 3.95121 45.8179 4.11551 46.6668 4.35522V4.02447C46.6668 2.3252 45.6137 1.44534 43.8284 1.44534C42.8699 1.44534 42.3125 1.56626 41.6105 1.87638C41.5195 1.91337 41.4271 1.93186 41.3547 1.93186C41.023 1.93186 40.7271 1.65659 40.7271 1.32797C40.7271 1.03635 40.8554 0.85568 41.1147 0.741162C42.0525 0.337151 42.7603 0.202717 43.9753 0.202717C45.3192 0.202717 46.3509 0.549114 47.0501 1.24475C47.6962 1.88491 48.0279 2.79892 48.0279 4.00669V9.2247C48.0279 9.62586 47.7335 9.91963 47.3438 9.91963C46.9404 9.91963 46.6668 9.62657 46.6668 9.26097V8.35906C46.0027 9.22043 44.8959 9.9872 43.2231 9.9872C41.455 9.9872 39.6655 8.98215 39.6655 7.04318ZM46.6854 6.31126V5.39654C45.9841 5.19596 45.0434 4.99395 43.8836 4.99395C42.099 4.99395 41.1025 5.76286 41.1025 6.95071V6.98698C41.1025 8.17555 42.2065 8.87047 43.4974 8.87047C45.2476 8.87119 46.6854 7.80994 46.6854 6.31126ZM2.83915 0.79522C2.52752 0.11594 1.75596 -0.191337 1.03598 0.126609C0.315286 0.444555 0.0495035 1.23835 0.375463 1.91763L3.39865 8.44157C3.87434 9.46369 4.3751 10 5.31501 10C6.3194 10 6.75783 9.41674 7.2328 8.44157C7.2328 8.44157 9.86913 2.7413 9.89564 2.68156C9.92286 2.6211 10.0074 2.43687 10.2753 2.43901C10.5024 2.44043 10.693 2.62039 10.693 2.86151V8.43588C10.693 9.29511 11.173 10 12.0964 10C13.0191 10 13.5177 9.29511 13.5177 8.43588V3.87439C13.5177 2.99452 14.1525 2.42336 15.0179 2.42336C15.8833 2.42336 16.4593 3.01515 16.4593 3.87439V8.43588C16.4593 9.29511 16.9407 10 17.8627 10C18.7854 10 19.2869 9.29511 19.2869 8.43588V3.87439C19.2869 2.99452 19.9194 2.42336 20.7849 2.42336C21.6488 2.42336 22.227 3.01515 22.227 3.87439V8.43588C22.227 9.29511 22.7084 10 23.6311 10C24.5531 10 25.0539 9.29511 25.0539 8.43588V3.24419C25.0539 1.33651 23.5086 0 21.6495 0C19.7926 0 18.6292 1.27534 18.6292 1.27534C18.011 0.479408 17.1592 0.00142258 15.7171 0.00142258C14.1954 0.00142258 12.863 1.27534 12.863 1.27534C12.244 0.479408 11.1916 0.00142258 10.319 0.00142258C8.97006 0.00142258 7.89905 0.590369 7.24569 2.0734L5.31501 6.59222L2.83915 0.79522ZM64.01 1.36069V1.35287C64.01 0.714845 64.5315 0.177111 65.187 0.177111C65.8519 0.177111 66.3662 0.709154 66.3662 1.34789V1.35287C66.3662 1.99303 65.8461 2.53076 65.187 2.53076C64.5222 2.53076 64.01 2.00085 64.01 1.36069ZM66.1406 1.35287V1.35002C66.1406 0.825094 65.7322 0.394765 65.1878 0.394765C64.6483 0.394765 64.2335 0.832918 64.2335 1.35358V1.35998C64.2335 1.88349 64.6433 2.31382 65.1878 2.31382C65.725 2.31311 66.1406 1.87567 66.1406 1.35287Z" fill="white"/>
</svg>
