<svg width="67" height="10" viewBox="0 0 67 10" fill="none" xmlns="http://www.w3.org/2000/svg">
<path d="M28.4081 9.26808L25.5131 1.26325C25.4759 1.15229 25.4207 1.00647 25.4207 0.878441C25.4207 0.531332 25.7159 0.202006 26.1392 0.202006C26.5082 0.202006 26.7489 0.440287 26.8592 0.786685L29.2584 7.68405L31.6748 0.766769C31.7852 0.438865 32.0065 0.200583 32.3733 0.200583H32.4485C32.8368 0.200583 33.0761 0.438865 33.1864 0.766769L35.5828 7.68405L38.0199 0.749698C38.1124 0.455224 38.3137 0.200583 38.702 0.200583C39.1074 0.200583 39.4033 0.509994 39.4033 0.859236C39.4033 0.987268 39.3474 1.13237 39.3109 1.24404L36.3973 9.26737C36.2483 9.68632 35.9546 9.90682 35.6222 9.90682H35.567C35.1981 9.90682 34.9208 9.68703 34.7904 9.26737L32.4127 2.46532L30.0142 9.26737C29.8853 9.68632 29.6073 9.90682 29.2398 9.90682H29.2011C28.8508 9.90682 28.5564 9.68703 28.4081 9.26808ZM49.5131 0.899779C49.5131 0.51355 49.8269 0.183512 50.2144 0.183512C50.6228 0.183512 50.9358 0.495768 50.9358 0.899779V2.52436C51.6372 0.946725 53.1932 0.202006 54.2241 0.202006C54.6511 0.202006 54.9283 0.51355 54.9283 0.91685C54.9283 1.30237 54.6711 1.57621 54.2979 1.6317C52.4496 1.85148 50.9358 3.22783 50.9358 5.96273V9.17917C50.9358 9.56469 50.6407 9.89402 50.2345 9.89402C49.8276 9.89402 49.5138 9.58105 49.5138 9.17917L49.5131 0.899779ZM59.4932 9.98293C56.9213 9.98293 54.8216 8.0027 54.8216 5.0978V5.0601C54.8216 2.35508 56.7236 0.176399 59.3126 0.176399C62.0808 0.176399 63.6576 2.44399 63.6576 4.93278C63.6576 5.31546 63.3467 5.58859 63.0049 5.58859H56.2364C56.4342 7.62074 57.8634 8.76449 59.5311 8.76449C60.6903 8.76449 61.5385 8.31069 62.2277 7.6748C62.3365 7.58518 62.4626 7.51263 62.6267 7.51263C62.9698 7.51263 63.2421 7.78505 63.2421 8.11295C63.2421 8.27584 63.1697 8.43943 63.0229 8.56533C62.1367 9.41817 61.085 9.98293 59.4932 9.98293ZM62.2628 4.55367C62.1173 2.84515 61.1395 1.35785 59.274 1.35785C57.6449 1.35785 56.4134 2.71854 56.2343 4.55367H62.2628ZM39.4277 7.04318V7.00619C39.4277 5.01316 41.0861 3.95121 43.4982 3.95121C44.7147 3.95121 45.5801 4.11551 46.429 4.35522V4.02447C46.429 2.3252 45.3759 1.44534 43.5906 1.44534C42.6321 1.44534 42.0747 1.56626 41.3727 1.87638C41.2817 1.91337 41.1893 1.93186 41.1169 1.93186C40.7852 1.93186 40.4894 1.65659 40.4894 1.32798C40.4894 1.03635 40.6176 0.85568 40.8769 0.741162C41.8147 0.337151 42.5225 0.202717 43.7375 0.202717C45.0815 0.202717 46.1131 0.549114 46.8123 1.24475C47.4585 1.88491 47.7901 2.79892 47.7901 4.00669V9.2247C47.7901 9.62586 47.4957 9.91963 47.106 9.91963C46.7027 9.91963 46.429 9.62657 46.429 9.26097V8.35906C45.7649 9.22043 44.6581 9.9872 42.9853 9.9872C41.2172 9.9872 39.4277 8.98215 39.4277 7.04318ZM46.4476 6.31126V5.39654C45.7463 5.19596 44.8056 4.99395 43.6458 4.99395C41.8613 4.99395 40.8647 5.76286 40.8647 6.95071V6.98698C40.8647 8.17555 41.9687 8.87047 43.2597 8.87047C45.0098 8.87119 46.4476 7.80994 46.4476 6.31126ZM2.60135 0.79522C2.28972 0.11594 1.51816 -0.191336 0.798187 0.126609C0.0774932 0.444555 -0.188289 1.23835 0.13767 1.91763L3.16086 8.44157C3.63655 9.46369 4.13731 10 5.07722 10C6.0816 10 6.52004 9.41674 6.99501 8.44157C6.99501 8.44157 9.63134 2.7413 9.65785 2.68156C9.68507 2.6211 9.76961 2.43687 10.0375 2.43901C10.2646 2.44043 10.4552 2.62039 10.4552 2.86151V8.43588C10.4552 9.29511 10.9352 10 11.8586 10C12.7813 10 13.2799 9.29511 13.2799 8.43588V3.87439C13.2799 2.99452 13.9147 2.42336 14.7801 2.42336C15.6455 2.42336 16.2215 3.01515 16.2215 3.87439V8.43588C16.2215 9.29511 16.7029 10 17.6249 10C18.5476 10 19.0491 9.29511 19.0491 8.43588V3.87439C19.0491 2.99452 19.6817 2.42336 20.5471 2.42336C21.411 2.42336 21.9892 3.01515 21.9892 3.87439V8.43588C21.9892 9.29511 22.4706 10 23.3933 10C24.3153 10 24.8161 9.29511 24.8161 8.43588V3.24419C24.8161 1.33651 23.2708 0 21.4117 0C19.5549 0 18.3914 1.27534 18.3914 1.27534C17.7732 0.479408 16.9214 0.00142258 15.4793 0.00142258C13.9577 0.00142258 12.6252 1.27534 12.6252 1.27534C12.0062 0.479408 10.9538 0.00142258 10.0812 0.00142258C8.73227 0.00142258 7.66125 0.590369 7.0079 2.07341L5.07722 6.59222L2.60135 0.79522ZM63.7722 1.36069V1.35287C63.7722 0.714845 64.2937 0.177111 64.9492 0.177111C65.6141 0.177111 66.1284 0.709154 66.1284 1.34789V1.35287C66.1284 1.99303 65.6083 2.53076 64.9492 2.53076C64.2844 2.53076 63.7722 2.00085 63.7722 1.36069ZM65.9028 1.35287V1.35002C65.9028 0.825094 65.4944 0.394765 64.95 0.394765C64.4105 0.394765 63.9957 0.832918 63.9957 1.35358V1.35998C63.9957 1.88349 64.4055 2.31382 64.95 2.31382C65.4873 2.31311 65.9028 1.87567 65.9028 1.35287Z" fill="#696566"/>
</svg>
