<svg xmlns="http://www.w3.org/2000/svg" width="32" height="32" viewBox="0 0 32 32">
    <g fill="#263238">
        <path d="M16.499 9.162c-2.735 0-5.469-.315-8.123-.937-.269-.063-.436-.331-.373-.601.063-.268.325-.435.602-.373 5.793 1.358 11.95 1.187 17.678-.498.27-.076.544.073.621.338.078.266-.073.543-.338.621-3.271.962-6.658 1.45-10.067 1.45zM26.424 26.362c-.047 0-.094-.007-.142-.021-6.359-1.871-13.207-1.871-19.566 0-.269.075-.544-.073-.621-.338-.078-.266.073-.543.338-.621 6.545-1.926 13.588-1.926 20.133 0 .265.078.416.355.338.621-.064.219-.264.359-.48.359z"/>
        <path d="M15.888 30.639c-.098 0-.195-.028-.282-.087-4.667-3.185-7.453-8.422-7.453-14.009 0-4.527 1.781-8.788 5.017-11.998.197-.197.514-.193.707.002.195.196.193.513-.002.707-3.045 3.021-4.722 7.03-4.722 11.289 0 5.256 2.623 10.185 7.018 13.183.228.155.286.467.131.695-.098.142-.255.218-.414.218zM17.153 30.639c-.159 0-.316-.076-.413-.218-.155-.229-.097-.54.131-.695 4.395-2.998 7.018-7.927 7.018-13.183S21.266 6.358 16.871 3.36c-.228-.155-.286-.467-.131-.695.156-.228.468-.284.695-.131 4.667 3.185 7.453 8.422 7.453 14.009s-2.786 10.824-7.453 14.009c-.086.058-.184.087-.282.087z"/>
        <path d="M16.499 30.49c-.276 0-.5-.224-.5-.5V3.096c0-.276.224-.5.5-.5s.5.224.5.5V29.99c0 .277-.224.5-.5.5z"/>
        <path d="M30.446 17.043H4.552c-.276 0-.5-.224-.5-.5s.224-.5.5-.5h25.895c.276 0 .5.224.5.5s-.224.5-.501.5z"/>
        <path d="M16.499 31.043c-7.995 0-14.5-6.505-14.5-14.5 0-3.521 1.278-6.919 3.6-9.565.182-.208.497-.228.706-.046.207.182.227.498.046.706-2.161 2.463-3.352 5.626-3.352 8.905 0 7.444 6.056 13.5 13.5 13.5s13.5-6.056 13.5-13.5-6.056-13.5-13.5-13.5c-3.078 0-5.976 1.008-8.379 2.915-.216.172-.53.137-.702-.081-.172-.216-.136-.53.081-.702 2.581-2.049 5.693-3.132 9-3.132 7.995 0 14.5 6.505 14.5 14.5s-6.505 14.5-14.5 14.5z"/>
    </g>
</svg>
